<?xml version="1.0" encoding="iso-8859-1"?>
<!-- Generator: Adobe Illustrator 19.0.0, SVG Export Plug-In . SVG Version: 6.00 Build 0)  -->
<svg version="1.1" id="Layer_1" xmlns="http://www.w3.org/2000/svg" xmlns:xlink="http://www.w3.org/1999/xlink" x="0px" y="0px"
	 viewBox="0 0 512 512" style="enable-background:new 0 0 512 512;" xml:space="preserve">
<g>
	<path style="fill: white;" d="M256.001,512c-32.627,0-59.08-26.453-59.08-59.08V59.077C196.921,26.45,223.374,0,256.001,0
		s59.077,26.45,59.077,59.077V452.92C315.078,485.548,288.628,512,256.001,512z"/>
	<path style="fill: white;" d="M452.924,315.075c-15.119,0-30.241-5.765-41.769-17.301L256.004,142.628L100.852,297.774
		c-23.068,23.073-60.477,23.073-83.546,0c-23.073-23.073-23.073-60.477,0-83.551l196.92-196.918
		c23.068-23.073,60.477-23.073,83.543,0l196.925,196.92c23.071,23.073,23.071,60.477,0,83.551
		C483.157,309.309,468.038,315.075,452.924,315.075z"/>
</g>
<g>
</g>
<g>
</g>
<g>
</g>
<g>
</g>
<g>
</g>
<g>
</g>
<g>
</g>
<g>
</g>
<g>
</g>
<g>
</g>
<g>
</g>
<g>
</g>
<g>
</g>
<g>
</g>
<g>
</g>
</svg>
